<svg width="383" height="86" viewBox="0 0 383 86" fill="none" xmlns="http://www.w3.org/2000/svg">
<path d="M80.6639 21.3798C85.341 21.3798 88.8723 22.3068 91.2473 24.1506C93.6327 25.9996 94.8306 28.6923 94.8306 32.2339C94.8306 34.1662 94.315 35.9006 93.2889 37.4423C92.2577 38.9839 90.7577 40.1662 88.7889 40.9839C90.2733 41.4839 91.6431 42.1871 92.8931 43.0881C94.1431 43.9943 95.1535 45.1662 95.9348 46.6089C96.7264 48.0412 97.1223 49.786 97.1223 51.8381C97.1223 54.3537 96.6535 56.4371 95.7264 58.0881C94.8098 59.7287 93.5858 61.0204 92.0598 61.9631C90.5441 62.911 88.8775 63.5777 87.0598 63.9631C85.2525 64.3537 83.4452 64.5464 81.6431 64.5464H60.4348V21.3798H80.6639ZM80.1639 27.7964H67.0806V39.1298H80.8931C82.7941 39.1037 84.4608 38.5985 85.8931 37.6089C87.3358 36.6089 88.0598 35.2079 88.0598 33.4006C88.0598 31.3902 87.2941 29.9527 85.7681 29.0881C84.2525 28.2287 82.3827 27.7964 80.1639 27.7964ZM81.2056 45.5464H67.0806V58.1298H81.5181C84.1118 58.1298 86.2316 57.6089 87.8723 56.5673C89.5077 55.5152 90.3306 53.8954 90.3306 51.7131C90.3306 50.161 89.8566 48.9318 88.9139 48.0256C87.966 47.1246 86.7941 46.4839 85.3931 46.1089C84.0025 45.7339 82.6066 45.5464 81.2056 45.5464Z" fill="#242F57"/>
<path d="M119.618 64.5464V52.8381H101.118L98.2845 47.2756L120.43 21.3798H126.035V46.7339H134.555V52.8381H126.035V64.5464H119.618ZM106.118 46.7339H119.618V30.8173L106.118 46.7339Z" fill="#242F57"/>
<path d="M139.113 64.5464V21.3798H170.071V27.7964H145.759V40.0048H167.28V46.4214H145.759V64.5464H139.113Z" fill="#242F57"/>
<path d="M180.598 25.1506C179.166 25.1506 178.098 24.786 177.39 24.0464C176.692 23.2964 176.348 22.3329 176.348 21.1506C176.348 20.1246 176.692 19.2027 177.39 18.3798C178.098 17.5464 179.166 17.1298 180.598 17.1298C182.041 17.1298 183.109 17.5048 183.806 18.2548C184.515 18.9943 184.869 19.9579 184.869 21.1506C184.869 22.1818 184.515 23.1037 183.806 23.9214C183.109 24.7443 182.041 25.1506 180.598 25.1506ZM183.806 64.5464H177.452V32.1714H183.806V64.5464Z" fill="#242F57"/>
<path d="M211.991 31.4839C215.116 31.4839 217.606 32.1037 219.47 33.3381C221.345 34.5776 222.705 36.2131 223.554 38.2547C224.397 40.286 224.824 42.5568 224.824 45.0672V64.5464H218.47V45.7339C218.47 43.2756 217.767 41.2495 216.366 39.6506C214.96 38.0412 212.887 37.2756 210.137 37.3589C208.205 37.3589 206.491 37.786 204.991 38.6297C203.491 39.4631 202.309 40.5412 201.449 41.8589C200.585 43.1662 200.158 44.5203 200.158 45.9214V64.5464H193.804V32.1714H200.158V37.5881C201.377 35.9943 203.017 34.5776 205.074 33.3381C207.127 32.1037 209.434 31.4839 211.991 31.4839Z" fill="#242F57"/>
<path d="M266.253 32.1714V64.5464H259.898V59.2339C259.159 60.2235 258.154 61.1714 256.878 62.0881C255.596 62.9943 254.128 63.7339 252.461 64.3172C250.805 64.8849 249.008 65.1714 247.065 65.1714C243.867 65.1714 241.023 64.4526 238.523 63.0047C236.034 61.562 234.086 59.5672 232.669 57.0256C231.253 54.4735 230.544 51.5568 230.544 48.2756C230.544 44.9839 231.279 42.0881 232.753 39.5881C234.237 37.0776 236.284 35.0985 238.898 33.6506C241.508 32.2078 244.503 31.4839 247.878 31.4839C250.544 31.4839 252.909 31.9995 254.982 33.0256C257.065 34.0568 258.701 35.2495 259.898 36.6089V32.1714H266.253ZM248.544 59.2964C250.805 59.2964 252.815 58.8172 254.565 57.8589C256.315 56.8901 257.68 55.5828 258.669 53.9422C259.654 52.2912 260.148 50.4006 260.148 48.2756C260.148 46.2235 259.654 44.3745 258.669 42.7339C257.68 41.0828 256.315 39.7756 254.565 38.8172C252.815 37.8485 250.805 37.3589 248.544 37.3589C246.294 37.3589 244.294 37.8485 242.544 38.8172C240.794 39.7756 239.43 41.0828 238.461 42.7339C237.503 44.3745 237.023 46.2235 237.023 48.2756C237.023 50.4006 237.503 52.2912 238.461 53.9422C239.43 55.5828 240.794 56.8901 242.544 57.8589C244.294 58.8172 246.294 59.2964 248.544 59.2964Z" fill="#242F57"/>
<path d="M293.506 31.4839C296.631 31.4839 299.121 32.1037 300.985 33.3381C302.86 34.5776 304.219 36.2131 305.068 38.2547C305.912 40.286 306.339 42.5568 306.339 45.0672V64.5464H299.985V45.7339C299.985 43.2756 299.282 41.2495 297.881 39.6506C296.475 38.0412 294.402 37.2756 291.652 37.3589C289.719 37.3589 288.006 37.786 286.506 38.6297C285.006 39.4631 283.824 40.5412 282.964 41.8589C282.1 43.1662 281.673 44.5203 281.673 45.9214V64.5464H275.318V32.1714H281.673V37.5881C282.891 35.9943 284.532 34.5776 286.589 33.3381C288.641 32.1037 290.949 31.4839 293.506 31.4839Z" fill="#242F57"/>
<path d="M318.663 48.3381C318.663 50.4631 319.184 52.3589 320.226 54.0256C321.278 55.6922 322.689 57.0151 324.455 57.9839C326.215 58.9422 328.148 59.4214 330.247 59.4214C332.84 59.4214 335.064 58.911 336.913 57.8797C338.757 56.8537 340.299 55.786 341.538 54.6714L345.059 59.2339C343.403 60.8068 341.257 62.187 338.622 63.3797C335.997 64.5724 333.064 65.1714 329.83 65.1714C326.538 65.1714 323.564 64.4318 320.913 62.9422C318.257 61.4578 316.169 59.4422 314.643 56.9006C313.127 54.3485 312.372 51.4943 312.372 48.3381C312.372 45.1297 313.127 42.2651 314.643 39.7339C316.169 37.2078 318.257 35.2026 320.913 33.7131C323.564 32.2287 326.538 31.4839 329.83 31.4839C333.148 31.4839 336.153 32.0776 338.851 33.2547C341.544 34.4214 343.611 35.9735 345.059 37.9006L341.538 42.5881C340.674 41.6037 339.611 40.7131 338.351 39.9214C337.101 39.1193 335.768 38.4735 334.351 37.9839C332.934 37.4839 331.544 37.2339 330.184 37.2339C327.976 37.2339 325.997 37.7235 324.247 38.6922C322.497 39.6506 321.127 40.9631 320.143 42.6297C319.153 44.2964 318.663 46.2026 318.663 48.3381Z" fill="#242F57"/>
<path d="M380.75 60.2964H380.688C379.657 61.1193 378.375 61.911 376.834 62.6714C375.292 63.4214 373.594 64.0256 371.75 64.4839C369.901 64.9422 368.011 65.1714 366.084 65.1714C362.334 65.1714 359.021 64.4631 356.146 63.0464C353.271 61.6193 351.026 59.661 349.417 57.1714C347.818 54.687 347.021 51.8589 347.021 48.6922C347.021 45.0828 347.86 41.9943 349.542 39.4214C351.235 36.8537 353.485 34.8797 356.292 33.5047C359.11 32.1193 362.188 31.4214 365.521 31.4214C368.604 31.4214 371.396 32.0985 373.896 33.4422C376.407 34.7756 378.417 36.6193 379.917 38.9631C381.417 41.2964 382.167 44.0256 382.167 47.1506L382.104 50.1089H353.438C353.922 52.9578 355.38 55.2026 357.813 56.8381C360.24 58.4787 363.282 59.2964 366.938 59.2964C369.615 59.2964 371.802 58.8797 373.5 58.0464C375.209 57.2026 376.615 56.3901 377.729 55.6089L380.75 60.2964ZM365.521 37.2964C362.604 37.2964 360.052 37.8797 357.875 39.0464C355.693 40.2131 354.276 42.2235 353.625 45.0672H375.709V44.3797C375.542 42.9787 374.964 41.7495 373.979 40.6922C372.99 39.6245 371.75 38.7912 370.25 38.1922C368.75 37.5985 367.172 37.2964 365.521 37.2964Z" fill="#242F57"/>
<path d="M0 29V57L24 43L0 29Z" fill="url(#paint0_linear_894_472)"/>
<path fill-rule="evenodd" clip-rule="evenodd" d="M0 0V22L29.9814 39.4892L47.5233 29.1929L0 0ZM47.5233 56.8071L29.9814 46.5108L0 64V86L47.5233 56.8071Z" fill="url(#paint1_linear_894_472)"/>
<defs>
<linearGradient id="paint0_linear_894_472" x1="23.9992" y1="43.0001" x2="-0.000835419" y2="43.0001" gradientUnits="userSpaceOnUse">
<stop stop-color="#00C4CC"/>
<stop offset="0.0078125" stop-color="#00C4CC"/>
<stop offset="0.015625" stop-color="#00C3CC"/>
<stop offset="0.0234375" stop-color="#00C2CB"/>
<stop offset="0.03125" stop-color="#00C1CB"/>
<stop offset="0.0390625" stop-color="#00C0CB"/>
<stop offset="0.046875" stop-color="#00BFCB"/>
<stop offset="0.0546875" stop-color="#00BECA"/>
<stop offset="0.0625" stop-color="#00BDCA"/>
<stop offset="0.0703125" stop-color="#00BCCA"/>
<stop offset="0.078125" stop-color="#00BBCA"/>
<stop offset="0.0859375" stop-color="#00BAC9"/>
<stop offset="0.09375" stop-color="#00B9C9"/>
<stop offset="0.101563" stop-color="#00B8C9"/>
<stop offset="0.109375" stop-color="#00B7C9"/>
<stop offset="0.117188" stop-color="#00B6C8"/>
<stop offset="0.125" stop-color="#00B5C8"/>
<stop offset="0.132812" stop-color="#00B4C8"/>
<stop offset="0.140625" stop-color="#00B3C8"/>
<stop offset="0.148438" stop-color="#00B2C7"/>
<stop offset="0.15625" stop-color="#00B1C7"/>
<stop offset="0.164062" stop-color="#00B1C7"/>
<stop offset="0.171875" stop-color="#00B0C7"/>
<stop offset="0.179687" stop-color="#00AFC7"/>
<stop offset="0.1875" stop-color="#00AEC6"/>
<stop offset="0.195313" stop-color="#00ADC6"/>
<stop offset="0.203125" stop-color="#00ACC6"/>
<stop offset="0.210938" stop-color="#00ABC6"/>
<stop offset="0.21875" stop-color="#00AAC5"/>
<stop offset="0.226562" stop-color="#00A9C5"/>
<stop offset="0.234375" stop-color="#00A8C5"/>
<stop offset="0.242188" stop-color="#00A7C5"/>
<stop offset="0.25" stop-color="#00A6C4"/>
<stop offset="0.257812" stop-color="#00A5C4"/>
<stop offset="0.265625" stop-color="#00A4C4"/>
<stop offset="0.273438" stop-color="#00A3C4"/>
<stop offset="0.28125" stop-color="#00A2C3"/>
<stop offset="0.289062" stop-color="#00A1C3"/>
<stop offset="0.296875" stop-color="#00A0C3"/>
<stop offset="0.304688" stop-color="#009FC3"/>
<stop offset="0.3125" stop-color="#009EC2"/>
<stop offset="0.320312" stop-color="#009DC2"/>
<stop offset="0.328125" stop-color="#009CC2"/>
<stop offset="0.335937" stop-color="#009CC2"/>
<stop offset="0.34375" stop-color="#009BC1"/>
<stop offset="0.351562" stop-color="#009AC1"/>
<stop offset="0.359375" stop-color="#0099C1"/>
<stop offset="0.367187" stop-color="#0098C1"/>
<stop offset="0.375" stop-color="#0097C0"/>
<stop offset="0.382813" stop-color="#0096C0"/>
<stop offset="0.390625" stop-color="#0095C0"/>
<stop offset="0.398438" stop-color="#0094C0"/>
<stop offset="0.40625" stop-color="#0093BF"/>
<stop offset="0.414063" stop-color="#0092BF"/>
<stop offset="0.421875" stop-color="#0091BF"/>
<stop offset="0.429688" stop-color="#0090BF"/>
<stop offset="0.4375" stop-color="#008FBF"/>
<stop offset="0.445312" stop-color="#008EBE"/>
<stop offset="0.453125" stop-color="#008DBE"/>
<stop offset="0.460938" stop-color="#008CBE"/>
<stop offset="0.46875" stop-color="#008BBE"/>
<stop offset="0.476562" stop-color="#008ABD"/>
<stop offset="0.484375" stop-color="#0089BD"/>
<stop offset="0.492188" stop-color="#0088BD"/>
<stop offset="0.5" stop-color="#0087BD"/>
<stop offset="0.507812" stop-color="#0087BC"/>
<stop offset="0.515625" stop-color="#0086BC"/>
<stop offset="0.523438" stop-color="#0085BC"/>
<stop offset="0.53125" stop-color="#0084BC"/>
<stop offset="0.539062" stop-color="#0083BB"/>
<stop offset="0.546875" stop-color="#0082BB"/>
<stop offset="0.554688" stop-color="#0081BB"/>
<stop offset="0.5625" stop-color="#0080BB"/>
<stop offset="0.570312" stop-color="#007FBA"/>
<stop offset="0.578125" stop-color="#007EBA"/>
<stop offset="0.585938" stop-color="#007DBA"/>
<stop offset="0.59375" stop-color="#007CBA"/>
<stop offset="0.601562" stop-color="#007BB9"/>
<stop offset="0.609375" stop-color="#007AB9"/>
<stop offset="0.617188" stop-color="#0079B9"/>
<stop offset="0.625" stop-color="#0078B9"/>
<stop offset="0.632812" stop-color="#0077B8"/>
<stop offset="0.640625" stop-color="#0076B8"/>
<stop offset="0.648437" stop-color="#0075B8"/>
<stop offset="0.65625" stop-color="#0074B8"/>
<stop offset="0.664062" stop-color="#0073B7"/>
<stop offset="0.671875" stop-color="#0073B7"/>
<stop offset="0.679687" stop-color="#0072B7"/>
<stop offset="0.6875" stop-color="#0071B7"/>
<stop offset="0.695312" stop-color="#0070B6"/>
<stop offset="0.703125" stop-color="#006FB6"/>
<stop offset="0.710937" stop-color="#006EB6"/>
<stop offset="0.71875" stop-color="#006DB6"/>
<stop offset="0.726562" stop-color="#006CB6"/>
<stop offset="0.734375" stop-color="#006BB5"/>
<stop offset="0.742188" stop-color="#006AB5"/>
<stop offset="0.75" stop-color="#0069B5"/>
<stop offset="0.757812" stop-color="#0068B5"/>
<stop offset="0.765625" stop-color="#0067B4"/>
<stop offset="0.773438" stop-color="#0066B4"/>
<stop offset="0.78125" stop-color="#0065B4"/>
<stop offset="0.789063" stop-color="#0064B4"/>
<stop offset="0.796875" stop-color="#0063B3"/>
<stop offset="0.804688" stop-color="#0062B3"/>
<stop offset="0.8125" stop-color="#0061B3"/>
<stop offset="0.820313" stop-color="#0060B3"/>
<stop offset="0.828125" stop-color="#005FB2"/>
<stop offset="0.835938" stop-color="#005EB2"/>
<stop offset="0.84375" stop-color="#005EB2"/>
<stop offset="0.851563" stop-color="#005DB2"/>
<stop offset="0.859375" stop-color="#005CB1"/>
<stop offset="0.867188" stop-color="#005BB1"/>
<stop offset="0.875" stop-color="#005AB1"/>
<stop offset="0.882812" stop-color="#0059B1"/>
<stop offset="0.890625" stop-color="#0058B0"/>
<stop offset="0.898438" stop-color="#0057B0"/>
<stop offset="0.90625" stop-color="#0056B0"/>
<stop offset="0.914062" stop-color="#0055B0"/>
<stop offset="0.921875" stop-color="#0054AF"/>
<stop offset="0.929688" stop-color="#0053AF"/>
<stop offset="0.9375" stop-color="#0052AF"/>
<stop offset="0.945312" stop-color="#0051AF"/>
<stop offset="0.953125" stop-color="#0050AE"/>
<stop offset="0.960938" stop-color="#004FAE"/>
<stop offset="0.96875" stop-color="#004EAE"/>
<stop offset="0.976562" stop-color="#004DAE"/>
<stop offset="0.984375" stop-color="#004CAD"/>
<stop offset="0.992188" stop-color="#004BAD"/>
<stop offset="1" stop-color="#004AAD"/>
</linearGradient>
<linearGradient id="paint1_linear_894_472" x1="48" y1="43" x2="-0.0024377" y2="43.0002" gradientUnits="userSpaceOnUse">
<stop stop-color="#00C4CC"/>
<stop offset="0.0078125" stop-color="#00C4CC"/>
<stop offset="0.015625" stop-color="#00C3CC"/>
<stop offset="0.0234375" stop-color="#00C2CB"/>
<stop offset="0.03125" stop-color="#00C1CB"/>
<stop offset="0.0390625" stop-color="#00C0CB"/>
<stop offset="0.046875" stop-color="#00BFCB"/>
<stop offset="0.0546875" stop-color="#00BECA"/>
<stop offset="0.0625" stop-color="#00BDCA"/>
<stop offset="0.0703125" stop-color="#00BCCA"/>
<stop offset="0.078125" stop-color="#00BBCA"/>
<stop offset="0.0859375" stop-color="#00BAC9"/>
<stop offset="0.09375" stop-color="#00B9C9"/>
<stop offset="0.101563" stop-color="#00B8C9"/>
<stop offset="0.109375" stop-color="#00B7C9"/>
<stop offset="0.117188" stop-color="#00B6C8"/>
<stop offset="0.125" stop-color="#00B5C8"/>
<stop offset="0.132812" stop-color="#00B4C8"/>
<stop offset="0.140625" stop-color="#00B3C8"/>
<stop offset="0.148438" stop-color="#00B2C7"/>
<stop offset="0.15625" stop-color="#00B1C7"/>
<stop offset="0.164062" stop-color="#00B1C7"/>
<stop offset="0.171875" stop-color="#00B0C7"/>
<stop offset="0.179687" stop-color="#00AFC7"/>
<stop offset="0.1875" stop-color="#00AEC6"/>
<stop offset="0.195313" stop-color="#00ADC6"/>
<stop offset="0.203125" stop-color="#00ACC6"/>
<stop offset="0.210938" stop-color="#00ABC6"/>
<stop offset="0.21875" stop-color="#00AAC5"/>
<stop offset="0.226562" stop-color="#00A9C5"/>
<stop offset="0.234375" stop-color="#00A8C5"/>
<stop offset="0.242188" stop-color="#00A7C5"/>
<stop offset="0.25" stop-color="#00A6C4"/>
<stop offset="0.257812" stop-color="#00A5C4"/>
<stop offset="0.265625" stop-color="#00A4C4"/>
<stop offset="0.273438" stop-color="#00A3C4"/>
<stop offset="0.28125" stop-color="#00A2C3"/>
<stop offset="0.289062" stop-color="#00A1C3"/>
<stop offset="0.296875" stop-color="#00A0C3"/>
<stop offset="0.304688" stop-color="#009FC3"/>
<stop offset="0.3125" stop-color="#009EC2"/>
<stop offset="0.320312" stop-color="#009DC2"/>
<stop offset="0.328125" stop-color="#009CC2"/>
<stop offset="0.335937" stop-color="#009CC2"/>
<stop offset="0.34375" stop-color="#009BC1"/>
<stop offset="0.351562" stop-color="#009AC1"/>
<stop offset="0.359375" stop-color="#0099C1"/>
<stop offset="0.367187" stop-color="#0098C1"/>
<stop offset="0.375" stop-color="#0097C0"/>
<stop offset="0.382813" stop-color="#0096C0"/>
<stop offset="0.390625" stop-color="#0095C0"/>
<stop offset="0.398438" stop-color="#0094C0"/>
<stop offset="0.40625" stop-color="#0093BF"/>
<stop offset="0.414063" stop-color="#0092BF"/>
<stop offset="0.421875" stop-color="#0091BF"/>
<stop offset="0.429688" stop-color="#0090BF"/>
<stop offset="0.4375" stop-color="#008FBF"/>
<stop offset="0.445312" stop-color="#008EBE"/>
<stop offset="0.453125" stop-color="#008DBE"/>
<stop offset="0.460938" stop-color="#008CBE"/>
<stop offset="0.46875" stop-color="#008BBE"/>
<stop offset="0.476562" stop-color="#008ABD"/>
<stop offset="0.484375" stop-color="#0089BD"/>
<stop offset="0.492188" stop-color="#0088BD"/>
<stop offset="0.5" stop-color="#0087BD"/>
<stop offset="0.507812" stop-color="#0087BC"/>
<stop offset="0.515625" stop-color="#0086BC"/>
<stop offset="0.523438" stop-color="#0085BC"/>
<stop offset="0.53125" stop-color="#0084BC"/>
<stop offset="0.539062" stop-color="#0083BB"/>
<stop offset="0.546875" stop-color="#0082BB"/>
<stop offset="0.554688" stop-color="#0081BB"/>
<stop offset="0.5625" stop-color="#0080BB"/>
<stop offset="0.570312" stop-color="#007FBA"/>
<stop offset="0.578125" stop-color="#007EBA"/>
<stop offset="0.585938" stop-color="#007DBA"/>
<stop offset="0.59375" stop-color="#007CBA"/>
<stop offset="0.601562" stop-color="#007BB9"/>
<stop offset="0.609375" stop-color="#007AB9"/>
<stop offset="0.617188" stop-color="#0079B9"/>
<stop offset="0.625" stop-color="#0078B9"/>
<stop offset="0.632812" stop-color="#0077B8"/>
<stop offset="0.640625" stop-color="#0076B8"/>
<stop offset="0.648437" stop-color="#0075B8"/>
<stop offset="0.65625" stop-color="#0074B8"/>
<stop offset="0.664062" stop-color="#0073B7"/>
<stop offset="0.671875" stop-color="#0073B7"/>
<stop offset="0.679687" stop-color="#0072B7"/>
<stop offset="0.6875" stop-color="#0071B7"/>
<stop offset="0.695312" stop-color="#0070B6"/>
<stop offset="0.703125" stop-color="#006FB6"/>
<stop offset="0.710937" stop-color="#006EB6"/>
<stop offset="0.71875" stop-color="#006DB6"/>
<stop offset="0.726562" stop-color="#006CB6"/>
<stop offset="0.734375" stop-color="#006BB5"/>
<stop offset="0.742188" stop-color="#006AB5"/>
<stop offset="0.75" stop-color="#0069B5"/>
<stop offset="0.757812" stop-color="#0068B5"/>
<stop offset="0.765625" stop-color="#0067B4"/>
<stop offset="0.773438" stop-color="#0066B4"/>
<stop offset="0.78125" stop-color="#0065B4"/>
<stop offset="0.789063" stop-color="#0064B4"/>
<stop offset="0.796875" stop-color="#0063B3"/>
<stop offset="0.804688" stop-color="#0062B3"/>
<stop offset="0.8125" stop-color="#0061B3"/>
<stop offset="0.820313" stop-color="#0060B3"/>
<stop offset="0.828125" stop-color="#005FB2"/>
<stop offset="0.835938" stop-color="#005EB2"/>
<stop offset="0.84375" stop-color="#005EB2"/>
<stop offset="0.851563" stop-color="#005DB2"/>
<stop offset="0.859375" stop-color="#005CB1"/>
<stop offset="0.867188" stop-color="#005BB1"/>
<stop offset="0.875" stop-color="#005AB1"/>
<stop offset="0.882812" stop-color="#0059B1"/>
<stop offset="0.890625" stop-color="#0058B0"/>
<stop offset="0.898438" stop-color="#0057B0"/>
<stop offset="0.90625" stop-color="#0056B0"/>
<stop offset="0.914062" stop-color="#0055B0"/>
<stop offset="0.921875" stop-color="#0054AF"/>
<stop offset="0.929688" stop-color="#0053AF"/>
<stop offset="0.9375" stop-color="#0052AF"/>
<stop offset="0.945312" stop-color="#0051AF"/>
<stop offset="0.953125" stop-color="#0050AE"/>
<stop offset="0.960938" stop-color="#004FAE"/>
<stop offset="0.96875" stop-color="#004EAE"/>
<stop offset="0.976562" stop-color="#004DAE"/>
<stop offset="0.984375" stop-color="#004CAD"/>
<stop offset="0.992188" stop-color="#004BAD"/>
<stop offset="1" stop-color="#004AAD"/>
</linearGradient>
</defs>
</svg>
